<svg width="70" height="70" viewBox="0 0 70 70" fill="none" xmlns="http://www.w3.org/2000/svg">
<path d="M16.3996 51.2909C17.9137 54.3849 20.9926 56.5091 24.5391 56.5091H32.5231C37.6601 56.5091 42 52.1339 42 46.955V35.1273C42 34.4244 41.4301 33.8546 40.7273 33.8546H16.6727C15.9699 33.8546 15.4 34.4244 15.4 35.1273V36.5273H14.512C11.2452 36.5273 8.7818 38.9614 8.7818 42.1891V45.3459C8.7818 48.624 11.3523 51.2909 14.512 51.2909H16.3996ZM17.9454 36.4H39.4545V46.955C39.4545 48.7456 38.7006 50.5364 37.386 51.8681C36.0518 53.2194 34.3247 53.9637 32.5231 53.9637H24.5391C20.9033 53.9637 17.9454 50.8196 17.9454 46.955V36.4ZM11.3273 45.3459V42.1891C11.3273 40.3834 12.6665 39.0727 14.512 39.0727H15.4V46.955C15.4 47.5672 15.4575 48.1651 15.5633 48.7455H14.512C12.756 48.7455 11.3273 47.2205 11.3273 45.3459Z" fill="#DCA57D"/>
<path d="M65.0777 3.81412C63.2921 2.01117 60.8929 1.01819 58.3223 1.01819H11.9013C6.53189 1.01819 2.16364 5.31186 2.16364 10.5895V12.9769C2.16364 15.5475 3.18602 17.9757 5.04267 19.8143C6.8922 21.6458 9.32807 22.6545 11.9013 22.6545H20.4158L21.0005 25.4598C21.1236 26.0499 21.6437 26.4727 22.2465 26.4727H25.0727V28.6364C25.0727 29.3393 25.6426 29.9091 26.3454 29.9091H31.0545C31.7573 29.9091 32.3273 29.3393 32.3273 28.6364V26.4727H35.2444C35.8471 26.4727 36.3673 26.0498 36.4904 25.4598L37.075 22.6545H46.4545V58.0364H12.8297C7.43043 58.0364 3.20116 62.2851 3.20116 67.7091C3.20116 68.4119 3.77109 68.9818 4.47389 68.9818H66.5636C67.2664 68.9818 67.8363 68.4119 67.8363 67.7091V10.5895C67.8363 8.01641 66.8567 5.61019 65.0777 3.81412ZM29.7818 27.3636H27.6182V26.4727H29.7818V27.3636ZM34.2095 23.9273H31.0545H26.3454H23.2814L23.016 22.6545H34.4749L34.2095 23.9273ZM65.2909 66.4364H5.85123C6.09789 64.9624 6.77434 63.6308 7.81607 62.6004C9.13232 61.2987 10.9127 60.5818 12.8297 60.5818H47.7273C48.4301 60.5818 49 60.0119 49 59.3091V21.3818C49 20.6789 48.4301 20.1091 47.7273 20.1091H36.0402H21.4507H11.9013C10.0033 20.1091 8.20362 19.362 6.83391 18.0055C5.46369 16.6488 4.70909 14.8629 4.70909 12.9769V10.5895C4.70909 6.71542 7.93558 3.56364 11.9013 3.56364H58.3223C62.2299 3.56364 65.2909 6.64975 65.2909 10.5895V66.4364Z" fill="#DCA57D"/>
</svg>
