<svg width="24" height="24" viewBox="0 0 24 24" fill="none" xmlns="http://www.w3.org/2000/svg">
<path d="M19.4953 15.7263C18.8109 15.0231 16.8656 13.706 15.5906 13.706C15.2953 13.706 15.0375 13.7716 14.8266 13.9075C14.2031 14.306 13.7063 14.6153 13.4672 14.6153C13.3359 14.6153 13.1953 14.4981 12.8859 14.231L12.8344 14.1841C11.9766 13.4388 11.7938 13.2466 11.4609 12.8997L11.3766 12.8106C11.3156 12.7497 11.2641 12.6935 11.2125 12.6419C10.9219 12.3419 10.7109 12.1263 9.96563 11.2825L9.93282 11.245C9.57657 10.8419 9.34219 10.5794 9.32813 10.3872C9.31407 10.1997 9.47813 9.89502 9.89532 9.32783C10.4016 8.64346 10.4203 7.79971 9.95626 6.82002C9.58594 6.04658 8.98126 5.30596 8.44688 4.65439L8.40001 4.59814C7.94063 4.03564 7.40626 3.75439 6.81095 3.75439C6.15001 3.75439 5.60157 4.11064 5.31094 4.29814C5.28751 4.31221 5.26407 4.33096 5.24063 4.34502C4.58907 4.75752 4.11563 5.32471 3.93751 5.90127C3.67032 6.76846 3.49219 7.89346 4.77188 10.2325C5.87813 12.2575 6.88126 13.6169 8.47501 15.2528C9.97501 16.7903 10.6406 17.2872 12.1313 18.3653C13.7906 19.5653 15.3844 20.2544 16.5 20.2544C17.5359 20.2544 18.3516 20.2544 19.5141 18.8528C20.7328 17.381 20.2266 16.481 19.4953 15.7263Z" fill="#DCA57D"/>
</svg>
