<svg width="24" height="24" viewBox="0 0 24 24" fill="none" xmlns="http://www.w3.org/2000/svg">
<path d="M21 0.75C22.2405 0.75 23.25 1.7595 23.25 3V21C23.25 22.2405 22.2405 23.25 21 23.25H3C1.7595 23.25 0.75 22.2405 0.75 21V3C0.75 1.7595 1.7595 0.75 3 0.75H21ZM21 0H3C1.35 0 0 1.35 0 3V21C0 22.65 1.35 24 3 24H21C22.65 24 24 22.65 24 21V3C24 1.35 22.65 0 21 0Z" fill="#DCA57D"/>
<path d="M10.1977 18.9462H13.068V11.9997H14.9827L15.2362 9.60644H13.068L13.071 8.40794C13.071 7.78394 13.1302 7.44944 14.0257 7.44944H15.2227V5.05469H13.3072C11.007 5.05469 10.1977 6.21644 10.1977 8.16869V9.60569H8.76375V11.9997H10.1977V18.9462Z" fill="#DCA57D"/>
</svg>
