<svg width="70" height="70" viewBox="0 0 70 70" fill="none" xmlns="http://www.w3.org/2000/svg">
<g clip-path="url(#clip0)">
<path d="M18.9572 1.06432e-05C18.5725 0.00154894 18.2039 0.155088 17.9319 0.427178C17.6598 0.699267 17.5063 1.06786 17.5047 1.45265V12.5411C15.7135 14.4865 8.75 22.7388 8.75 33.5417V65.625C8.75 68.0235 10.7263 70 13.1245 70H42.288C42.3204 69.9992 42.3526 69.9974 42.3849 69.9945H56.8669C59.2652 69.9945 61.25 68.0237 61.25 65.6252V33.5445C61.2595 21.7026 54.4244 14.3393 52.4981 12.4955V1.45265C52.4965 1.06588 52.3415 0.695571 52.0669 0.423156C51.7924 0.150741 51.4209 -0.00146589 51.0342 1.06432e-05H18.9572ZM20.4211 2.91668H49.5817V11.6667H20.4211V2.91668ZM19.6664 14.5862H47.6821C45.3659 17.3832 42.1177 22.3983 41.1346 29.4344C41.0824 29.7925 41.0369 30.1556 40.9979 30.5253C40.9697 30.8021 40.9417 31.0775 40.921 31.3599C40.8672 32.0693 40.8298 32.7915 40.8298 33.5417C40.8298 33.5427 40.8298 33.5436 40.8298 33.5446V67.0833H13.1245C12.2915 67.0833 11.6663 66.4582 11.6663 65.625V33.5417C11.6663 23.0295 19.0688 15.2085 19.6664 14.5862ZM51.0456 15.3723C52.5166 16.7337 58.3396 22.4878 58.3308 33.5445V65.625C58.3308 66.4581 57.7 67.0776 56.8669 67.0776H43.7462V33.5445V33.5417C43.7462 33.5388 43.7462 33.5361 43.7462 33.5331C43.7495 25.3338 48.4268 18.5334 50.7665 15.6457C50.7697 15.6418 50.769 15.644 50.7722 15.64C50.8582 15.5577 50.9775 15.4354 51.0456 15.3723L51.0456 15.3723ZM30.0587 31.5507C28.4587 31.4474 26.7806 31.896 25.2228 32.7242C22.7303 34.0493 20.4034 36.3546 18.6696 39.3579C16.9358 42.3613 16.0959 45.5372 16.1947 48.3586C16.2908 51.1046 17.3459 53.6367 19.5126 54.9894C19.5606 55.0277 19.611 55.0629 19.6635 55.0948C19.6707 55.0991 19.6762 55.1049 19.6835 55.1091C19.7037 55.1208 19.7259 55.1262 19.7461 55.1376C19.7778 55.1549 19.8101 55.1711 19.843 55.1861C22.103 56.4041 24.8347 56.0481 27.2705 54.7531C29.763 53.4279 32.0928 51.1142 33.8266 48.1108C35.5604 45.1075 36.3946 41.9401 36.2958 39.1187C36.2018 36.4335 35.1905 33.9556 33.1203 32.5818C32.9473 32.4128 32.7349 32.2894 32.5023 32.2229C31.729 31.8325 30.9073 31.6055 30.0587 31.5507ZM29.1758 34.4702C27.9594 35.7754 26.4113 37.619 25.1773 39.7567C24.5494 40.8442 24.2003 41.7507 24.4681 42.7503C24.7321 43.7358 25.5412 44.1669 25.8665 44.3539C25.8433 44.2766 25.9109 44.3236 25.5219 44.9976C24.0731 47.5071 21.5913 50.375 20.2702 51.8363C19.5878 51.0265 19.1687 49.8208 19.1139 48.2532C19.0384 46.0982 19.7082 43.393 21.1957 40.8162C22.6833 38.2395 24.6861 36.3169 26.5899 35.3048C27.5187 34.811 28.3887 34.5409 29.1758 34.4702ZM32.1748 35.5811C32.8859 36.3906 33.3205 37.6197 33.3766 39.224C33.4521 41.379 32.788 44.0757 31.3004 46.6524C29.8129 49.2292 27.8044 51.1603 25.9006 52.1725C24.9002 52.7043 23.9718 52.9759 23.1381 53.0184C24.5827 51.3838 26.6153 48.9335 28.0423 46.4616C28.6702 45.3741 29.0193 44.4705 28.7515 43.4709C28.4875 42.4854 27.6898 42.0543 27.3645 41.8673C27.3873 41.9418 27.3215 41.8808 27.7091 41.2093C29.1082 38.7857 31.0632 36.6899 32.1748 35.5811Z" fill="#DCA57D"/>
</g>
<defs>
<clipPath id="clip0">
<rect width="70" height="70" fill="white"/>
</clipPath>
</defs>
</svg>
