<svg width="70" height="70" viewBox="0 0 70 70" fill="none" xmlns="http://www.w3.org/2000/svg">
<path d="M56.4249 28.0273H51.543V12.1394C51.5498 12.0008 51.5281 11.8623 51.4793 11.7325C51.4305 11.6026 51.3556 11.4841 51.2592 11.3843C51.1628 11.2845 51.0471 11.2055 50.919 11.1522C50.7909 11.0988 50.6533 11.0723 50.5146 11.0742H42.793V3.27399C42.793 2.66983 42.2532 2.18749 41.6492 2.18749H37.2164C36.924 2.18478 36.6424 2.29725 36.4323 2.50057C36.2222 2.70389 36.1006 2.98172 36.0938 3.27399V11.0742H19.4854C19.3467 11.0723 19.2091 11.0988 19.081 11.1522C18.9529 11.2055 18.8372 11.2845 18.7408 11.3843C18.6444 11.4841 18.5696 11.6026 18.5208 11.7325C18.4719 11.8623 18.4503 12.0008 18.457 12.1394V28.0273H13.5751C13.4206 28.0273 13.2679 28.06 13.127 28.1233C12.9862 28.1866 12.8603 28.279 12.7576 28.3944C12.655 28.5098 12.578 28.6457 12.5317 28.793C12.4854 28.9403 12.4708 29.0958 12.4889 29.2492L16.9217 66.8468C16.9531 67.1129 17.081 67.3582 17.2812 67.5362C17.4814 67.7142 17.74 67.8125 18.0079 67.8125H51.9921C52.26 67.8125 52.5186 67.7142 52.7188 67.5362C52.919 67.3582 53.047 67.1129 53.0783 66.8468L57.5112 29.2492C57.5293 29.0958 57.5147 28.9403 57.4683 28.793C57.422 28.6457 57.345 28.5098 57.2424 28.3944C57.1398 28.279 57.0139 28.1866 56.873 28.1233C56.7321 28.06 56.5794 28.0273 56.4249 28.0273ZM49.3555 28.0273H47.168V13.2617H49.3555V28.0273ZM44.9805 13.2617V28.0358C44.7215 28.066 44.4828 28.1908 44.3104 28.3863C44.1379 28.5818 44.0438 28.8341 44.0461 29.0948C44.0081 30.6757 43.4766 32.1891 42.793 33.5147V13.2617H44.9805ZM38.2813 4.37499H40.6055V35.9864C39.8984 36.5279 39.1152 36.9619 38.2813 37.2744V4.37499ZM36.0938 37.8301C35.3677 37.9256 34.6323 37.9256 33.9063 37.8301V13.2617H36.0938V37.8301ZM31.7188 37.2742C30.8848 36.9616 30.1016 36.5276 29.3945 35.9861V13.2617H31.7188V37.2742ZM27.207 33.5144C26.5234 32.1882 25.9919 30.6754 25.9539 29.0946C25.9562 28.8339 25.862 28.5816 25.6895 28.3862C25.5171 28.1907 25.2784 28.066 25.0195 28.0358V13.2617H27.207V33.5144ZM20.6445 13.2617H22.832V28.0273H20.6445V13.2617ZM51.0198 65.625H18.9803L14.8054 30.2148H23.8643C24.1933 32.9368 25.5079 35.4439 27.5597 37.2626C29.6114 39.0813 32.2582 40.0855 35 40.0855C37.7418 40.0855 40.3886 39.0813 42.4403 37.2626C44.4921 35.4439 45.8067 32.9368 46.1358 30.2148H55.1946L51.0198 65.625Z" fill="#DCA57D"/>
<path d="M45.9375 49.3555C45.9375 49.0654 45.8223 48.7872 45.6171 48.5821C45.412 48.377 45.1338 48.2617 44.8438 48.2617H25.1562C24.8662 48.2617 24.588 48.377 24.3829 48.5821C24.1777 48.7872 24.0625 49.0654 24.0625 49.3555V57.4219C24.0625 57.712 24.1777 57.9902 24.3829 58.1953C24.588 58.4004 24.8662 58.5156 25.1562 58.5156H44.8438C45.1338 58.5156 45.412 58.4004 45.6171 58.1953C45.8223 57.9902 45.9375 57.712 45.9375 57.4219V49.3555ZM43.75 56.4648H26.25V50.4492H43.75V56.4648Z" fill="#DCA57D"/>
</svg>
