<svg width="24" height="24" viewBox="0 0 24 24" fill="none" xmlns="http://www.w3.org/2000/svg">
<path d="M11.454 23.5935C11.58 23.733 11.7015 23.823 11.8185 23.886L11.8245 23.889C11.8962 23.9315 11.9769 23.9567 12.06 23.9625C12.135 23.9625 12.2145 23.931 12.2955 23.889L12.3015 23.886C12.4185 23.823 12.54 23.733 12.666 23.5935C12.666 23.5935 19.638 16.011 20.3385 9.441C20.3805 9.102 20.409 8.7585 20.409 8.409C20.409 3.765 16.644 0 12 0C7.356 0 3.591 3.765 3.591 8.409C3.591 8.7645 3.6195 9.111 3.663 9.4545C4.3815 16.0215 11.454 23.5935 11.454 23.5935ZM12 3C14.982 3 17.409 5.427 17.409 8.409C17.409 11.391 14.982 13.818 12 13.818C9.018 13.818 6.591 11.391 6.591 8.409C6.591 5.427 9.018 3 12 3Z" fill="#DCA57D"/>
</svg>
