<svg width="24" height="24" viewBox="0 0 24 24" fill="none" xmlns="http://www.w3.org/2000/svg">
<path d="M18.7266 0.445312H5.27344C2.52187 0.445312 0.28125 2.68594 0.28125 5.4375V18.5625C0.28125 21.3141 2.52187 23.5547 5.27344 23.5547H18.7266C21.4781 23.5547 23.7188 21.3141 23.7188 18.5625V5.4375C23.7188 2.68594 21.4781 0.445312 18.7266 0.445312ZM22.7812 18.5625C22.7812 20.7984 20.9625 22.6172 18.7266 22.6172H5.27344C3.0375 22.6172 1.21875 20.7984 1.21875 18.5625V5.4375C1.21875 3.20156 3.0375 1.38281 5.27344 1.38281H18.7266C20.9625 1.38281 22.7812 3.20156 22.7812 5.4375V18.5625Z" fill="#DCA57D"/>
<path d="M12 6.23467C8.82187 6.23467 6.23438 8.82217 6.23438 12.0003C6.23438 15.1784 8.82187 17.7659 12 17.7659C15.1781 17.7659 17.7656 15.1784 17.7656 12.0003C17.7656 8.82217 15.1781 6.23467 12 6.23467ZM12 16.8284C9.3375 16.8284 7.17187 14.6628 7.17187 12.0003C7.17187 9.33779 9.3375 7.17217 12 7.17217C14.6625 7.17217 16.8281 9.33779 16.8281 12.0003C16.8281 14.6628 14.6625 16.8284 12 16.8284ZM18.8297 3.83936C17.9484 3.83936 17.2312 4.55654 17.2312 5.43779C17.2312 6.31904 17.9484 7.03623 18.8297 7.03623C19.7109 7.03623 20.4281 6.31904 20.4281 5.43779C20.4281 4.55654 19.7109 3.83936 18.8297 3.83936ZM18.8297 6.09873C18.4641 6.09873 18.1687 5.80342 18.1687 5.43779C18.1687 5.07217 18.4641 4.77686 18.8297 4.77686C19.1953 4.77686 19.4906 5.07217 19.4906 5.43779C19.4906 5.80342 19.1953 6.09873 18.8297 6.09873Z" fill="#DCA57D"/>
</svg>
