<svg width="54" height="54" viewBox="0 0 54 54" fill="none" xmlns="http://www.w3.org/2000/svg">
<path fill-rule="evenodd" clip-rule="evenodd" d="M46 27.5548C46 40.0761 40.2412 50.6467 32.3551 53.9999C33.684 49.8639 36.1423 41.9184 36.1423 40.7135C36.1423 40.6291 36.143 40.5374 36.1437 40.439C36.1569 38.7305 36.1858 34.9888 32.8034 32.3542C31.6543 31.4592 30.497 30.644 29.4422 29.901L29.4422 29.901L29.4421 29.901C27.213 28.3308 25.4414 27.0829 25.1716 26.0847C25.1352 25.95 25.0981 25.8206 25.0618 25.6937L25.0618 25.6936C24.7014 24.4347 24.4136 23.4295 25.5691 20.1248C26.6629 16.9964 27.1957 17.4125 28.0587 18.0864L28.0588 18.0865C28.1993 18.1962 28.3486 18.3128 28.5105 18.422C29.4812 19.0769 31.9045 21.8017 32.8034 23.066C32.0349 20.9504 29.6711 16.1774 26.364 15.2485C22.2301 14.0875 20.0042 25.0011 21.6736 28.9485C22.4382 30.7564 23.2528 31.4278 23.9876 32.0335C24.8573 32.7503 25.6151 33.375 26.046 35.6824C26.6498 38.9156 21.3783 47.5204 18.258 52.0261C12.1635 47.4377 8 38.2014 8 27.5548C8 12.3367 16.5066 0 27 0C37.4934 0 46 12.3367 46 27.5548ZM30.7364 17.7249C31.3459 18.6795 32.6762 20.1089 33.1214 18.1893C33.5772 16.2236 33.4996 16.128 33.2818 15.8598C33.2337 15.8006 33.1788 15.733 33.1214 15.6351C32.9333 15.3147 32.6618 15.6439 32.3563 16.0145C32.1452 16.2706 31.9178 16.5464 31.6904 16.6413C31.534 16.7065 31.2897 16.7165 31.0476 16.7264C30.4279 16.7518 29.8219 16.7766 30.7364 17.7249Z" fill="#DCA57D"/>
</svg>
